# xmcd
#
# Track frame offsets:
#        150
#        18320
#        40620
#        64295
#        87174
#        105782
#        125386
#        149548
#        167001
#        185441
#        202291
#        232322
#
# Disc length: 3367 seconds
#
# Revision: 0
# Processed by: cddbd v1.5.1PL2 Copyright (c) Steve Scherf et al.
# Submitted via: ExactAudioCopy v0.95a5
#
DISCID=a50d250c
DTITLE=SIXRIDE - SIXRIDE
DYEAR=2004
DGENRE=Heavy Metal
TTITLE0=MARY MAGDALENE
TTITLE1=SANZEN SEKAI
TTITLE2=AOI TOKI
TTITLE3=SHINKIROU NO KANATA
TTITLE4=BLACK NATIVE WORLD
TTITLE5=FLOAT FLOWER
TTITLE6=TSUKIKAGE
TTITLE7=F-ANGEL
TTITLE8=ROW OUT
TTITLE9=KIRISAKEBA KUROI DORO GA NAGARERU MONO E
TTITLE10=ON THE WIND
TTITLE11=AKANE IRO NO SORA
EXTD=
EXTT0=
EXTT1=
EXTT2=
EXTT3=
EXTT4=
EXTT5=
EXTT6=
EXTT7=
EXTT8=
EXTT9=
EXTT10=
EXTT11=
PLAYORDER=
